<svg xmlns="http://www.w3.org/2000/svg" xmlns:xlink="http://www.w3.org/1999/xlink" width="24px" height="24px" viewBox="0 0 24 24" version="1.1">
<defs>
<linearGradient id="linear0" gradientUnits="userSpaceOnUse" x1="-566.7114" y1="516.5693" x2="-493.2875" y2="621.4296" gradientTransform="matrix(0.1875,0,0,-0.1875,111.375,118.6875)">
<stop offset="0" style="stop-color:rgb(100%,72.54902%,0%);stop-opacity:1;"/>
<stop offset="1" style="stop-color:rgb(56.862745%,0%,92.156863%);stop-opacity:1;"/>
</linearGradient>
</defs>
<g id="surface1">
<path style=" stroke:none;fill-rule:nonzero;fill:url(#linear0);" d="M 24 12 C 24 18.628906 18.628906 24 12 24 C 5.371094 24 0 18.628906 0 12 C 0 5.371094 5.371094 0 12 0 C 18.628906 0 24 5.371094 24 12 Z M 24 12 "/>
<path style=" stroke:none;fill-rule:nonzero;fill:rgb(100%,100%,100%);fill-opacity:1;" d="M 15.4375 19.5 L 8.5625 19.5 C 6.324219 19.5 4.5 17.675781 4.5 15.4375 L 4.5 8.5625 C 4.5 6.324219 6.324219 4.5 8.5625 4.5 L 15.4375 4.5 C 17.675781 4.5 19.5 6.324219 19.5 8.5625 L 19.5 15.4375 C 19.5 17.675781 17.675781 19.5 15.4375 19.5 Z M 8.5625 5.75 C 7.011719 5.75 5.75 7.011719 5.75 8.5625 L 5.75 15.4375 C 5.75 16.988281 7.011719 18.25 8.5625 18.25 L 15.4375 18.25 C 16.988281 18.25 18.25 16.988281 18.25 15.4375 L 18.25 8.5625 C 18.25 7.011719 16.988281 5.75 15.4375 5.75 Z M 8.5625 5.75 "/>
<path style=" stroke:none;fill-rule:nonzero;fill:rgb(100%,100%,100%);fill-opacity:1;" d="M 12 15.75 C 9.933594 15.75 8.25 14.066406 8.25 12 C 8.25 9.933594 9.933594 8.25 12 8.25 C 14.066406 8.25 15.75 9.933594 15.75 12 C 15.75 14.066406 14.066406 15.75 12 15.75 Z M 12 9.5 C 10.621094 9.5 9.5 10.621094 9.5 12 C 9.5 13.378906 10.621094 14.5 12 14.5 C 13.378906 14.5 14.5 13.378906 14.5 12 C 14.5 10.621094 13.378906 9.5 12 9.5 Z M 12 9.5 "/>
<path style=" stroke:none;fill-rule:nonzero;fill:rgb(100%,100%,100%);fill-opacity:1;" d="M 16.84375 8.015625 C 16.84375 8.488281 16.457031 8.875 15.984375 8.875 C 15.511719 8.875 15.125 8.488281 15.125 8.015625 C 15.125 7.542969 15.511719 7.15625 15.984375 7.15625 C 16.457031 7.15625 16.84375 7.542969 16.84375 8.015625 Z M 16.84375 8.015625 "/>
</g>
</svg>
