<svg xmlns="http://www.w3.org/2000/svg" xmlns:xlink="http://www.w3.org/1999/xlink" width="24px" height="24px" viewBox="0 0 24 24" version="1.1">
<g id="surface1">
<path style=" stroke:none;fill-rule:evenodd;fill:rgb(10.196078%,7.058824%,12.156863%);fill-opacity:1;" d="M 12 0 C 18.628906 0 24 5.371094 24 12 C 24 18.628906 18.628906 24 12 24 C 5.371094 24 0 18.628906 0 12 C 0 5.371094 5.371094 0 12 0 Z M 14.410156 5.085938 C 14.433594 5.292969 14.46875 5.492188 14.515625 5.6875 L 14.96875 5.6875 C 15.050781 6.40625 15.257812 7.0625 15.578125 7.609375 C 16.101562 8.09375 16.785156 8.394531 17.613281 8.445312 L 17.613281 9.109375 C 17.765625 9.140625 17.925781 9.164062 18.09375 9.175781 L 18.09375 11.3125 C 17.023438 11.417969 16.089844 11.066406 15 10.410156 L 15.167969 14.070312 C 15.167969 15.25 15.171875 15.789062 14.535156 16.878906 C 13.058594 19.414062 10.347656 19.519531 8.621094 18.195312 C 7.738281 17.890625 6.960938 17.296875 6.46875 16.496094 C 5.039062 14.15625 6.328125 10.339844 10.476562 9.945312 L 10.472656 10.511719 L 10.472656 10.652344 C 10.695312 10.605469 10.929688 10.570312 11.175781 10.546875 L 11.175781 12.800781 C 10.277344 12.949219 9.707031 13.226562 9.441406 13.734375 C 8.90625 14.757812 9.148438 15.644531 9.707031 16.207031 C 10.878906 16.40625 12.183594 15.59375 11.988281 13.085938 L 11.988281 5.085938 Z M 14.410156 5.085938 "/>
<path style=" stroke:none;fill-rule:evenodd;fill:rgb(14.901961%,95.686275%,93.333333%);fill-opacity:1;" d="M 14.410156 5.085938 C 14.632812 6.988281 15.769531 8.328125 17.613281 8.445312 L 17.613281 10.25 L 17.601562 10.25 L 17.601562 8.71875 C 15.757812 8.601562 14.699219 7.46875 14.476562 5.566406 L 12.523438 5.566406 L 12.523438 13.566406 C 12.804688 17.164062 10 17.273438 8.929688 15.90625 C 10.1875 16.695312 12.230469 16.183594 11.988281 13.085938 L 11.988281 5.085938 Z M 9.164062 18.347656 C 8.0625 18.117188 7.058594 17.460938 6.46875 16.496094 C 5.039062 14.15625 6.328125 10.339844 10.476562 9.945312 L 10.472656 10.511719 C 6.625 11.125 6.238281 15.257812 7.304688 16.976562 C 7.714844 17.640625 8.386719 18.105469 9.164062 18.347656 Z M 9.164062 18.347656 "/>
<path style=" stroke:none;fill-rule:evenodd;fill:rgb(98.431373%,17.254902%,32.54902%);fill-opacity:1;" d="M 14.96875 5.6875 C 15.09375 6.769531 15.492188 7.710938 16.152344 8.34375 C 15.226562 7.863281 14.667969 6.953125 14.492188 5.6875 Z M 17.601562 9.109375 C 17.757812 9.140625 17.921875 9.164062 18.09375 9.175781 L 18.09375 11.3125 C 17.023438 11.417969 16.089844 11.066406 15 10.410156 L 15.167969 14.070312 C 15.167969 15.25 15.171875 15.792969 14.535156 16.878906 C 12.992188 19.523438 10.109375 19.523438 8.398438 18.015625 C 10.625 19.292969 14.515625 18.292969 14.507812 13.949219 L 14.507812 9.957031 C 15.597656 10.609375 16.53125 10.960938 17.601562 10.855469 Z M 10.472656 10.652344 C 10.695312 10.605469 10.929688 10.570312 11.175781 10.546875 L 11.175781 12.800781 C 10.277344 12.949219 9.707031 13.226562 9.441406 13.734375 C 8.6875 15.171875 9.472656 16.34375 10.515625 16.714844 C 9.214844 16.667969 7.921875 15.332031 8.820312 13.617188 C 9.085938 13.105469 9.574219 12.828125 10.472656 12.679688 Z M 10.472656 10.652344 "/>
<path style=" stroke:none;fill-rule:evenodd;fill:rgb(99.607843%,99.607843%,99.607843%);fill-opacity:1;" d="M 14.476562 5.566406 C 14.699219 7.46875 15.757812 8.601562 17.601562 8.71875 L 17.601562 10.855469 C 16.53125 10.960938 15.597656 10.609375 14.507812 9.957031 L 14.507812 13.949219 C 14.515625 19.167969 8.90625 19.5625 7.304688 16.976562 C 6.238281 15.257812 6.625 11.125 10.472656 10.511719 L 10.472656 12.679688 C 9.574219 12.828125 9.085938 13.105469 8.820312 13.617188 C 7.167969 16.769531 12.921875 18.648438 12.523438 13.566406 L 12.523438 5.566406 Z M 14.476562 5.566406 "/>
</g>
</svg>
